<mxfile host="65bd71144e">
    <diagram id="mcoXSG51egkqBWXHrh-9" name="Page-1">
        <mxGraphModel dx="832" dy="278" grid="1" gridSize="10" guides="1" tooltips="1" connect="1" arrows="1" fold="1" page="1" pageScale="1" pageWidth="850" pageHeight="1100" math="0" shadow="0">
            <root>
                <mxCell id="0"/>
                <mxCell id="1" parent="0"/>
                <mxCell id="15" value="" style="group" parent="1" vertex="1" connectable="0">
                    <mxGeometry x="48" y="20" width="755" height="480" as="geometry"/>
                </mxCell>
                <mxCell id="3" value="" style="rounded=0;whiteSpace=wrap;html=1;" parent="15" vertex="1">
                    <mxGeometry width="755" height="480" as="geometry"/>
                </mxCell>
                <mxCell id="2" value="&lt;b&gt;&lt;font style=&quot;font-size: 30px;&quot;&gt;Freelix - Experience&lt;/font&gt;&lt;/b&gt;" style="text;html=1;align=center;verticalAlign=middle;whiteSpace=wrap;rounded=0;" parent="15" vertex="1">
                    <mxGeometry x="242" y="20" width="295" height="40" as="geometry"/>
                </mxCell>
                <mxCell id="6" value="" style="edgeStyle=none;html=1;" parent="15" source="4" target="5" edge="1">
                    <mxGeometry relative="1" as="geometry"/>
                </mxCell>
                <mxCell id="4" value="&lt;ul&gt;&lt;li&gt;Senioridade (Junior, pleno ou senior)&lt;/li&gt;&lt;li&gt;Anos de experiência (Anos)&lt;/li&gt;&lt;li&gt;Certificações relevantes (Quantidade)&lt;/li&gt;&lt;li&gt;Área de especialização (Tech, Design, Business ou Marketing)&lt;/li&gt;&lt;/ul&gt;" style="rounded=0;whiteSpace=wrap;html=1;align=left;" parent="15" vertex="1">
                    <mxGeometry x="22" y="100" width="408" height="180" as="geometry"/>
                </mxCell>
                <mxCell id="12" value="" style="edgeStyle=none;html=1;" parent="15" source="5" target="11" edge="1">
                    <mxGeometry relative="1" as="geometry"/>
                </mxCell>
                <mxCell id="5" value="F(x)" style="ellipse;whiteSpace=wrap;html=1;aspect=fixed;" parent="15" vertex="1">
                    <mxGeometry x="472" y="170" width="40" height="40" as="geometry"/>
                </mxCell>
                <mxCell id="11" value="Valor por Hora" style="rounded=0;whiteSpace=wrap;html=1;" parent="15" vertex="1">
                    <mxGeometry x="572" y="160" width="120" height="60" as="geometry"/>
                </mxCell>
            </root>
        </mxGraphModel>
    </diagram>
</mxfile>